<?xml version="1.0" encoding="UTF-8"?>
<svg version="1.1" xmlns="http://www.w3.org/2000/svg" width="1024" height="1024">
<path d="M0 0 C1.670625 0.061875 1.670625 0.061875 3.375 0.125 C3.375 0.455 3.375 0.785 3.375 1.125 C6.345 1.455 9.315 1.785 12.375 2.125 C12.375 1.465 12.375 0.805 12.375 0.125 C12.93727295 0.29394775 13.4995459 0.46289551 14.07885742 0.63696289 C16.56793961 1.16600864 18.57918103 1.11988409 21.11328125 0.93359375 C22.01626953 0.87623047 22.91925781 0.81886719 23.84960938 0.75976562 C25.73015015 0.62904669 27.61037448 0.49368636 29.49023438 0.35351562 C34.97531897 0.01435261 39.19424947 0.24563808 44.375 2.125 C44.375 1.465 44.375 0.805 44.375 0.125 C45.035 0.455 45.695 0.785 46.375 1.125 C48.70670789 1.37305799 51.04415213 1.56780514 53.3828125 1.73828125 C54.84713421 1.85004517 56.31140648 1.96245817 57.77563477 2.07543945 C58.93157639 2.1632518 58.93157639 2.1632518 60.11087036 2.25283813 C75.35934034 3.4314309 90.37165258 5.06950769 105.375 8.125 C106.40850586 8.33495605 107.44201172 8.54491211 108.50683594 8.76123047 C130.66536483 13.36616471 151.91046525 19.86398162 172.67431641 28.88769531 C173.61194824 29.2947168 174.54958008 29.70173828 175.515625 30.12109375 C176.33579102 30.48388428 177.15595703 30.8466748 178.00097656 31.22045898 C180.44724309 32.15252578 182.7984554 32.68536061 185.375 33.125 C185.375 33.785 185.375 34.445 185.375 35.125 C186.19226563 35.3621875 187.00953125 35.599375 187.8515625 35.84375 C192.08438436 37.38295795 195.83646527 39.41381061 199.75 41.625 C200.53729492 42.06714844 201.32458984 42.50929687 202.13574219 42.96484375 C221.18745815 53.75546667 238.56567105 66.12003727 255.375 80.125 C256.28813965 80.87934326 256.28813965 80.87934326 257.21972656 81.64892578 C269.1733728 91.54283669 280.39257968 102.22631149 290.375 114.125 C291.179375 115.04023438 291.98375 115.95546875 292.8125 116.8984375 C300.34198066 125.5154341 306.96840245 134.65060342 313.375 144.125 C313.84969727 144.8267334 314.32439453 145.5284668 314.81347656 146.25146484 C358.70304535 211.60051526 377.05065619 293.09684407 362.71875 370.85546875 C360.2188988 383.20146957 357.08820676 396.16068716 352.25854492 407.8203125 C350.74021906 411.78079775 351.76825625 414.71060969 353.40283203 418.52099609 C354.70984977 421.30507076 356.06281086 424.06123082 357.4375 426.8125 C358.37118175 428.68877998 359.29981573 430.56758288 360.22265625 432.44921875 C360.63523682 433.27510498 361.04781738 434.10099121 361.47290039 434.9519043 C362.375 437.125 362.375 437.125 362.375 440.125 C363.035 440.455 363.695 440.785 364.375 441.125 C365.12109375 443.00756836 365.12109375 443.00756836 365.8125 445.46484375 C366.19535156 446.81352539 366.19535156 446.81352539 366.5859375 448.18945312 C366.84632813 449.13755859 367.10671875 450.08566406 367.375 451.0625 C367.63539063 451.97580078 367.89578125 452.88910156 368.1640625 453.83007812 C370.82474579 463.32387987 372.7493385 472.2970876 372.6875 482.1875 C372.68476074 483.0856543 372.68202148 483.98380859 372.67919922 484.90917969 C372.54839231 493.42816764 371.65137307 501.89664229 369.375 510.125 C368.385 510.62 368.385 510.62 367.375 511.125 C366.983125 512.383125 366.59125 513.64125 366.1875 514.9375 C360.35585186 533.24481332 345.22929649 549.31843039 328.375 558.125 C310.44674532 566.45398063 290.51310215 569.70221433 271.00610352 571.96191406 C261.5422009 573.18676284 253.81649864 577.05439533 247.375 584.125 C234.7100002 600.63527685 232.05772484 622.60410222 232.3828125 642.734375 C232.40033351 644.72655737 232.41724134 646.7187452 232.43359375 648.7109375 C232.46440269 651.78889772 232.49987261 654.8665709 232.54638672 657.94433594 C232.84437342 678.8435832 231.32539955 696.39857636 217.375 713.125 C216.85292969 713.77984375 216.33085938 714.4346875 215.79296875 715.109375 C202.70306373 730.92762087 182.95752686 740.66464677 164.0625 747.8125 C162.99878174 748.22254272 162.99878174 748.22254272 161.91357422 748.64086914 C156.54711628 750.59989254 151.10003515 751.94772929 145.54223633 753.22973633 C144.36203793 753.50456722 144.36203793 753.50456722 143.15799713 753.78495026 C141.23075736 754.23346769 139.30293644 754.6794867 137.375 755.125 C137.37592179 754.52184558 137.37684359 753.91869116 137.37779331 753.29725933 C137.39993495 738.58081479 137.41645356 723.86437124 137.42681217 709.14791393 C137.43195542 702.03097623 137.43896033 694.91404968 137.45043945 687.79711914 C137.46044675 681.58971105 137.46686774 675.38231104 137.46908849 669.17489511 C137.47038538 665.89203373 137.47394105 662.6092007 137.48073006 659.32634544 C137.48802775 655.6500857 137.48898727 651.97387329 137.48852539 648.29760742 C137.49212067 647.22441757 137.49571594 646.15122772 137.49942017 645.04551697 C137.93482854 631.47179502 137.93482854 631.47179502 133.375 619.125 C128.69459565 614.79562597 124.94219611 613.76276455 118.7265625 613.84375 C114.76484788 614.31757633 112.58805196 615.74734155 109.375 618.125 C105.65669489 622.95879665 105.25581175 627.86412275 105.21678162 633.81343079 C105.2069928 634.94780075 105.19720398 636.08217072 105.18711853 637.25091553 C105.18136307 638.48593811 105.1756076 639.72096069 105.16967773 640.9934082 C105.15977814 642.30111679 105.14987854 643.60882538 105.13967896 644.9561615 C105.11270101 648.53424432 105.09165308 652.11234023 105.07167697 655.69046807 C105.04977343 659.43276354 105.02240615 663.17501897 104.99562073 666.9172821 C104.94575282 674.00028712 104.90079215 681.08331443 104.85759836 688.16636294 C104.80817548 696.2316481 104.75327612 704.29689308 104.69791877 712.36213934 C104.58418935 728.9497225 104.47733071 745.53734253 104.375 762.125 C101.01595362 762.61296767 97.65645768 763.09777085 94.296875 763.58203125 C93.35183105 763.71935669 92.40678711 763.85668213 91.43310547 763.99816895 C79.68983224 765.68709488 68.27162248 766.1719495 56.421875 766.14453125 C55.26220215 766.14312134 54.1025293 766.14171143 52.90771484 766.14025879 C50.06347128 766.1365973 47.21923833 766.13147051 44.375 766.125 C44.37261165 765.41600555 44.37022329 764.70701111 44.36776257 763.97653198 C44.30856925 746.70740366 44.2329915 729.43842442 44.13928509 712.16944885 C44.09436206 703.81821964 44.05493937 695.46703274 44.02856445 687.11572266 C44.00555604 679.83483106 43.97212635 672.55407376 43.92629844 665.27328873 C43.90240444 661.41986361 43.88365068 657.56657118 43.87738609 653.71307373 C43.87131783 650.08178146 43.85125577 646.45082851 43.82072449 642.81966209 C43.80781667 640.86030913 43.80950943 638.90087678 43.8117218 636.94148254 C43.73032623 629.27745163 43.64942662 622.39942662 37.9375 616.6875 C33.42063506 613.93331406 29.66508695 613.76016642 24.375 614.125 C19.03760527 616.11344117 15.92166176 619.03167648 13.375 624.125 C13.26943335 626.01256673 13.2283695 627.9038611 13.21678162 629.79434204 C13.2069928 631.0003154 13.19720398 632.20628876 13.18711853 633.44880676 C13.18121399 634.79220541 13.17540357 636.13560448 13.16967773 637.47900391 C13.16010157 638.88815093 13.15009165 640.29729507 13.13967896 641.70643616 C13.11259543 645.53882168 13.09160457 649.37121957 13.07167697 653.20364809 C13.04983865 657.20621282 13.02243944 661.2087393 12.99562073 665.21127319 C12.94566466 672.79374428 12.90073666 680.37623657 12.85759836 687.95874918 C12.80825086 696.58985364 12.75332353 705.22091974 12.69791877 713.85198712 C12.584054 731.60962408 12.47796144 749.36729624 12.375 767.125 C3.135 767.125 -6.105 767.125 -15.625 767.125 C-15.625 766.465 -15.625 765.805 -15.625 765.125 C-16.21273193 765.14167725 -16.80046387 765.15835449 -17.40600586 765.17553711 C-24.11764742 765.28121675 -30.55097831 764.64447664 -37.1875 763.6875 C-38.18330078 763.55279297 -39.17910156 763.41808594 -40.20507812 763.27929688 C-47.49011037 762.25988963 -47.49011037 762.25988963 -48.625 761.125 C-48.73255149 759.7213421 -48.77179998 758.31237381 -48.78321838 756.90464783 C-48.79790161 755.53949287 -48.79790161 755.53949287 -48.81288147 754.14675903 C-48.81863693 753.14047455 -48.8243924 752.13419006 -48.83032227 751.09741211 C-48.84022186 750.04388046 -48.85012146 748.99034882 -48.86032104 747.90489197 C-48.89204295 744.40406584 -48.91673557 740.90322611 -48.94140625 737.40234375 C-48.96196656 734.98238257 -48.98296277 732.56242506 -49.00437927 730.14247131 C-49.05969535 723.75889039 -49.10906243 717.37527655 -49.15722656 710.99163818 C-49.20737215 704.48332779 -49.26309436 697.97506546 -49.31835938 691.46679688 C-49.4260575 678.68623922 -49.52766562 665.90564057 -49.625 653.125 C-49.955 653.125 -50.285 653.125 -50.625 653.125 C-50.84745393 651.52273045 -51.05246669 649.91803233 -51.25 648.3125 C-51.42402344 646.97251953 -51.42402344 646.97251953 -51.6015625 645.60546875 C-51.625 643.125 -51.625 643.125 -49.625 640.125 C-48.86352647 633.15663178 -48.53359895 625.82418843 -52.3046875 619.6796875 C-55.25597465 616.20450322 -58.34467051 614.51245421 -62.83203125 613.75 C-68.31833676 613.45091691 -72.45836999 614.49957909 -76.625 618.125 C-81.04636245 624.98519759 -81.2051908 630.84801321 -81.17089844 638.875 C-81.18640495 640.76406822 -81.18640495 640.76406822 -81.20222473 642.69129944 C-81.22994785 646.12262303 -81.23349249 649.55358514 -81.23250484 652.98500443 C-81.23564583 656.57919546 -81.26128854 660.17322651 -81.28448486 663.76733398 C-81.32495807 670.56338963 -81.34536505 677.35934954 -81.35845876 684.15550709 C-81.37435834 691.89686428 -81.4127863 699.63805923 -81.45305204 707.37932205 C-81.53533207 723.29449973 -81.58949833 739.20964504 -81.625 755.125 C-83.2014776 754.82036693 -84.77737436 754.51272725 -86.35302734 754.20385742 C-87.23066742 754.03287033 -88.1083075 753.86188324 -89.01254272 753.68571472 C-92.85143314 752.86176924 -96.53624219 751.70104298 -100.25 750.4375 C-101.01707275 750.17839844 -101.78414551 749.91929687 -102.57446289 749.65234375 C-126.95482916 741.23062784 -152.0679793 728.42526993 -165.7734375 705.75390625 C-167.55485707 703.22459113 -169.19011129 701.9498518 -171.625 700.125 C-172.1875 696.875 -172.1875 696.875 -172.34594727 694.68920898 C-172.67647836 691.6519666 -173.42638568 688.81588976 -174.15234375 685.84765625 C-176.74033614 673.95716684 -175.79452267 661.68082274 -175.56347656 649.59399414 C-175.27185574 632.82195984 -175.29326405 615.00406554 -181.625 599.125 C-182.285 598.795 -182.945 598.465 -183.625 598.125 C-183.893125 597.25875 -184.16125 596.3925 -184.4375 595.5 C-185.69084995 591.9378475 -187.30638578 589.58588068 -189.6015625 586.640625 C-190.625 585.125 -190.625 585.125 -190.625 583.125 C-191.285 583.125 -191.945 583.125 -192.625 583.125 C-192.625 582.465 -192.625 581.805 -192.625 581.125 C-193.615 580.795 -194.605 580.465 -195.625 580.125 C-195.625 579.465 -195.625 578.805 -195.625 578.125 C-196.305625 577.856875 -196.98625 577.58875 -197.6875 577.3125 C-199.7321017 576.48595889 -201.75071722 575.59336971 -203.74487305 574.65161133 C-207.9461971 572.8525735 -212.14462853 572.17649792 -216.64453125 571.51171875 C-218.40825253 571.23012699 -220.17192272 570.94821508 -221.93554688 570.66601562 C-224.66773693 570.23968029 -227.40051696 569.81810755 -230.13452148 569.40356445 C-254.50961106 565.67424913 -278.52505118 559.08749259 -294.625 539.125 C-295.28242188 538.31933594 -295.93984375 537.51367188 -296.6171875 536.68359375 C-301.625 530.4188002 -301.625 530.4188002 -301.625 528.125 C-302.615 527.795 -303.605 527.465 -304.625 527.125 C-304.625 526.465 -304.625 525.805 -304.625 525.125 C-305.42379626 523.27635723 -306.26290217 521.44498431 -307.125 519.625 C-309.625 514.34722222 -309.625 514.34722222 -309.625 512.125 C-310.285 511.795 -310.945 511.465 -311.625 511.125 C-320.48476535 480.56092912 -312.46730698 450.80336179 -298.625 423.125 C-298.22958008 422.4542041 -297.83416016 421.7834082 -297.42675781 421.09228516 C-294.35700857 415.75250246 -294.19068009 412.07777519 -295.625 406.125 C-296.79433638 401.87455507 -298.13080974 397.68976496 -299.5 393.5 C-302.22659157 384.94087866 -304.63316332 376.54100186 -306.15234375 367.6875 C-306.49838119 365.14694312 -306.49838119 365.14694312 -307.625 363.125 C-307.8344361 361.14990127 -307.99303822 359.16928318 -308.125 357.1875 C-308.42821122 352.57072248 -308.42821122 352.57072248 -308.87011719 347.96606445 C-312.61772922 313.69300241 -309.64210461 278.39758295 -301.9296875 244.94921875 C-300.9459069 240.67961095 -300.13973543 236.47514211 -299.625 232.125 C-298.965 232.125 -298.305 232.125 -297.625 232.125 C-297.51833008 231.51696533 -297.41166016 230.90893066 -297.30175781 230.2824707 C-290.34390433 192.90732063 -267.13189512 155.28673517 -243.37890625 126.27734375 C-238.55012462 120.50365537 -238.55012462 120.50365537 -234.625 114.125 C-233.6072715 113.22226907 -232.56090189 112.35157596 -231.5 111.5 C-228.8579795 109.28134587 -226.54984942 107.00029836 -224.3125 104.375 C-217.71755978 96.64147145 -210.36544925 89.69347982 -202.625 83.125 C-201.27921875 81.94550781 -201.27921875 81.94550781 -199.90625 80.7421875 C-147.46266772 35.072107 -80.43067673 8.3364706 -11.28442383 2.80786133 C-6.68043232 2.40641917 -4.33816959 0.14959205 0 0 Z M-3.625 1.125 C0.375 2.125 0.375 2.125 0.375 2.125 Z M-193.4375 291.3125 C-194.61820316 293.58676314 -194.61820316 293.58676314 -195.625 296.125 C-195.99367188 297.011875 -196.36234375 297.89875 -196.7421875 298.8125 C-205.76171915 324.09352301 -202.78564642 354.79617295 -192.14453125 379.00390625 C-181.38238673 401.10918509 -164.88774632 418.26995963 -141.625 427.125 C-135.89358219 429.05751652 -130.72014332 430.44579702 -124.625 430.125 C-124.295 430.455 -123.965 430.785 -123.625 431.125 C-103.47643018 433.12031664 -84.35962015 429.01688671 -67.9375 416.875 C-66.47650929 415.65253839 -65.04032922 414.4000488 -63.625 413.125 C-62.74199219 412.33480469 -61.85898437 411.54460937 -60.94921875 410.73046875 C-51.87123666 402.15472633 -44.39478397 391.73629229 -39.625 380.125 C-39.18027344 379.10019531 -39.18027344 379.10019531 -38.7265625 378.0546875 C-35.2115141 368.5414831 -34.75717099 355.85041283 -38.375 346.3125 C-46.96727443 328.91983376 -70.21617718 324.0421499 -87.2880249 318.21621704 C-93.63519749 316.09746838 -100.00466374 314.04780868 -106.375 312 C-109.1518315 311.10354259 -111.92830431 310.20598157 -114.70471191 309.30821228 C-116.49939663 308.72794715 -118.29423433 308.1481549 -120.0892334 307.56886292 C-126.54260998 305.48384605 -132.979616 303.35372302 -139.40722656 301.19067383 C-145.86397374 299.05230498 -152.3626255 297.0355202 -158.9140625 295.20703125 C-161.6887819 294.39798149 -164.4121347 293.54064674 -167.1484375 292.6171875 C-167.9425 292.35292969 -168.7365625 292.08867187 -169.5546875 291.81640625 C-171.18024061 291.27368964 -172.80270891 290.72164126 -174.421875 290.16015625 C-184.82961997 286.59644958 -184.82961997 286.59644958 -193.4375 291.3125 Z M237.5 288.4375 C236.51257813 288.70175781 235.52515625 288.96601563 234.5078125 289.23828125 C233.47398437 289.53089844 232.44015625 289.82351563 231.375 290.125 C230.39152588 290.39675049 229.40805176 290.66850098 228.39477539 290.94848633 C223.19389951 292.43678916 218.06519453 294.15004651 212.92578125 295.8359375 C211.81197586 296.20018829 210.69817047 296.56443909 209.5506134 296.93972778 C205.92901162 298.12477152 202.3081472 299.31204309 198.6875 300.5 C197.45247742 300.90516846 196.21745483 301.31033691 194.94500732 301.7277832 C189.93704022 303.37114549 184.92926863 305.01509774 179.92211914 306.66094971 C173.6436358 308.72468915 167.36338755 310.78271019 161.07925415 312.82917786 C147.00940401 317.4143941 132.9833429 322.07302135 119.1875 327.4375 C118.2073291 327.81003906 117.2271582 328.18257813 116.21728516 328.56640625 C106.07818862 332.64141551 98.98260195 337.84420037 94.47265625 347.95703125 C90.23375923 360.19100093 93.1393241 373.06815665 98.15234375 384.6953125 C103.88208151 396.08156453 111.47582861 406.12022914 121.375 414.125 C122.39013672 415.00478516 122.39013672 415.00478516 123.42578125 415.90234375 C131.19885957 422.39648779 140.49997571 426.84614824 150.375 429.125 C151.00688232 429.28919434 151.63876465 429.45338867 152.28979492 429.62255859 C167.17356397 433.30038795 182.94851389 431.97102406 197.375 427.125 C198.42816406 426.774375 199.48132813 426.42375 200.56640625 426.0625 C222.12655534 417.96690295 240.223681 399.37575627 249.87890625 378.69921875 C260.01358958 354.48711627 263.65482994 324.66904373 254 299.625 C253.57976562 298.5215625 253.15953125 297.418125 252.7265625 296.28125 C250.89752892 292.00185337 250.89752892 292.00185337 248.375 288.125 C244.45670384 286.61441107 241.46763614 287.35026464 237.5 288.4375 Z M19.375 419.125 C17.09047338 421.7237707 15.03251618 424.45110548 13 427.25 C12.41130127 428.05695313 11.82260254 428.86390625 11.21606445 429.6953125 C-13.09853885 462.13672465 -13.09853885 462.13672465 -23.51953125 499.640625 C-22.63647743 504.92146171 -20.62855889 508.46957667 -16.625 512.125 C-9.37379058 516.34388548 -2.53899944 515.00260501 5.375 513.125 C9.02736496 512.1360596 12.65194628 511.06277748 16.24975586 509.890625 C26.54733081 506.60456216 33.64990117 507.27942293 44 510.5 C58.69776137 515.34412501 58.69776137 515.34412501 73.375 512.125 C76.99439437 509.09921929 79.06244247 505.64778576 79.6484375 500.91796875 C80.71743407 473.49409522 54.65307467 439.53478518 37.375 420.125 C33.64311261 416.3019164 33.64311261 416.3019164 29.375 413.125 C24.74180982 413.125 22.55944085 415.96413512 19.375 419.125 Z M-49.625 644.125 C-49.625 646.105 -49.625 648.085 -49.625 650.125 C-49.295 650.125 -48.965 650.125 -48.625 650.125 C-48.625 648.145 -48.625 646.165 -48.625 644.125 C-48.955 644.125 -49.285 644.125 -49.625 644.125 Z M-170.625 697.125 C-169.625 699.125 -169.625 699.125 -169.625 699.125 Z " fill="#000000" transform="translate(483.625,127.875)"/>
<path d="M0 0 C0.33 0 0.66 0 1 0 C1 42.9 1 85.8 1 130 C0.67 130 0.34 130 0 130 C-0.33 94.36 -0.66 58.72 -1 22 C-1.33 22 -1.66 22 -2 22 C-2.22245393 20.39773045 -2.42746669 18.79303233 -2.625 17.1875 C-2.74101562 16.29417969 -2.85703125 15.40085937 -2.9765625 14.48046875 C-3 12 -3 12 -1 9 C-0.54605448 6.72087062 -0.54605448 6.72087062 -0.375 4.3125 C-0.30023438 3.50425781 -0.22546875 2.69601562 -0.1484375 1.86328125 C-0.09945313 1.24839844 -0.05046875 0.63351562 0 0 Z M-1 13 C-1 14.98 -1 16.96 -1 19 C-0.67 19 -0.34 19 0 19 C0 17.02 0 15.04 0 13 C-0.33 13 -0.66 13 -1 13 Z " fill="#1D1D1C" transform="translate(435,759)"/>
<path d="M0 0 C2.60018816 3.90028225 2.15085514 7.47434569 2 12 C1.01 12.495 1.01 12.495 0 13 C-0.19551338 11.39679026 -0.38111983 9.79237014 -0.5625 8.1875 C-0.71912109 6.84751953 -0.71912109 6.84751953 -0.87890625 5.48046875 C-1 3 -1 3 0 0 Z " fill="#171716" transform="translate(433,768)"/>
<path d="M0 0 C0.33 0 0.66 0 1 0 C1 4.62 1 9.24 1 14 C0.67 14 0.34 14 0 14 C0 9.38 0 4.76 0 0 Z " fill="#151514" transform="translate(433,784)"/>
<path d="M0 0 C0.33 0 0.66 0 1 0 C1 3.96 1 7.92 1 12 C0.67 12 0.34 12 0 12 C0 8.04 0 4.08 0 0 Z " fill="#161514" transform="translate(433,802)"/>
<path d="M0 0 C0.33 0 0.66 0 1 0 C1 1.98 1 3.96 1 6 C0.67 6 0.34 6 0 6 C0 4.02 0 2.04 0 0 Z " fill="#1F1E1E" transform="translate(433,880)"/>
<path d="M0 0 C0.33 0 0.66 0 1 0 C1 1.98 1 3.96 1 6 C0.67 6 0.34 6 0 6 C0 4.02 0 2.04 0 0 Z " fill="#1C1B1B" transform="translate(433,872)"/>
<path d="M0 0 C0.33 0 0.66 0 1 0 C1 1.98 1 3.96 1 6 C0.67 6 0.34 6 0 6 C0 4.02 0 2.04 0 0 Z " fill="#171615" transform="translate(433,832)"/>
<path d="M0 0 C0.33 0 0.66 0 1 0 C1 1.65 1 3.3 1 5 C0.67 5 0.34 5 0 5 C0 3.35 0 1.7 0 0 Z " fill="#161615" transform="translate(433,817)"/>
<path d="M0 0 C1 4 1 4 1 4 Z " fill="#181917" transform="translate(433,858)"/>
<path d="M0 0 C0.66 0.66 1.32 1.32 2 2 C1.01 2.495 1.01 2.495 0 3 C0 2.01 0 1.02 0 0 Z " fill="#282625" transform="translate(186,665)"/>
<path d="M0 0 C1 4 1 4 1 4 Z " fill="#282828" transform="translate(178,504)"/>
<path d="M0 0 C1 4 1 4 1 4 Z " fill="#252424" transform="translate(177,385)"/>
<path d="" fill="#1A1A19" transform="translate(0,0)"/>
<path d="" fill="#181817" transform="translate(0,0)"/>
<path d="" fill="#191A19" transform="translate(0,0)"/>
<path d="M0 0 C0.66 0.66 1.32 1.32 2 2 C1.34 2 0.68 2 0 2 C0 1.34 0 0.68 0 0 Z " fill="#1B1B1A" transform="translate(520,744)"/>
<path d="M0 0 C3 1 3 1 3 1 Z " fill="#1D1C1E" transform="translate(541,640)"/>
<path d="" fill="#2C2C2A" transform="translate(0,0)"/>
<path d="M0 0 C0.33 0.66 0.66 1.32 1 2 C0.34 1.67 -0.32 1.34 -1 1 C-0.67 0.67 -0.34 0.34 0 0 Z " fill="#21211F" transform="translate(444,477)"/>
<path d="" fill="#242421" transform="translate(0,0)"/>
<path d="M0 0 C0.66 0.66 1.32 1.32 2 2 C1.34 2 0.68 2 0 2 C0 1.34 0 0.68 0 0 Z " fill="#232423" transform="translate(200,304)"/>
<path d="M0 0 C2 1 2 1 2 1 Z " fill="#292627" transform="translate(580,892)"/>
<path d="" fill="#171617" transform="translate(0,0)"/>
<path d="" fill="#161614" transform="translate(0,0)"/>
<path d="" fill="#161615" transform="translate(0,0)"/>
<path d="" fill="#131413" transform="translate(0,0)"/>
<path d="" fill="#141515" transform="translate(0,0)"/>
<path d="" fill="#1B1A19" transform="translate(0,0)"/>
<path d="" fill="#1A1B19" transform="translate(0,0)"/>
<path d="" fill="#1D1D1B" transform="translate(0,0)"/>
<path d="" fill="#272827" transform="translate(0,0)"/>
<path d="" fill="#252424" transform="translate(0,0)"/>
<path d="" fill="#252625" transform="translate(0,0)"/>
<path d="" fill="#1D1C1D" transform="translate(0,0)"/>
<path d="" fill="#1C1C1A" transform="translate(0,0)"/>
<path d="" fill="#292929" transform="translate(0,0)"/>
<path d="" fill="#1C1C1C" transform="translate(0,0)"/>
<path d="" fill="#1C1C1C" transform="translate(0,0)"/>
<path d="M0 0 C2 1 2 1 2 1 Z " fill="#222221" transform="translate(680,552)"/>
<path d="M0 0 C2 1 2 1 2 1 Z " fill="#222121" transform="translate(695,545)"/>
<path d="" fill="#262726" transform="translate(0,0)"/>
<path d="" fill="#252626" transform="translate(0,0)"/>
<path d="" fill="#262423" transform="translate(0,0)"/>
<path d="" fill="#252527" transform="translate(0,0)"/>
<path d="" fill="#20201F" transform="translate(0,0)"/>
<path d="" fill="#232222" transform="translate(0,0)"/>
<path d="" fill="#242323" transform="translate(0,0)"/>
<path d="M0 0 C2 1 2 1 2 1 Z " fill="#242222" transform="translate(315,422)"/>
<path d="" fill="#252524" transform="translate(0,0)"/>
<path d="" fill="#262625" transform="translate(0,0)"/>
<path d="M0 0 C2 1 2 1 2 1 Z " fill="#232424" transform="translate(184,345)"/>
<path d="" fill="#232121" transform="translate(0,0)"/>
<path d="M0 0 C2 1 2 1 2 1 Z " fill="#20201F" transform="translate(240,251)"/>
<path d="M0 0 C2 1 2 1 2 1 Z " fill="#232322" transform="translate(352,161)"/>
<path d="M0 0 C2 1 2 1 2 1 Z " fill="#262725" transform="translate(561,130)"/>
<path d="M0 0 C2 1 2 1 2 1 Z " fill="#262624" transform="translate(551,129)"/>
<path d="" fill="#262825" transform="translate(0,0)"/>
<path d="" fill="#313130" transform="translate(0,0)"/>
<path d="" fill="#3A3A39" transform="translate(0,0)"/>
<path d="" fill="#252225" transform="translate(0,0)"/>
<path d="" fill="#282727" transform="translate(0,0)"/>
<path d="" fill="#272726" transform="translate(0,0)"/>
<path d="" fill="#272625" transform="translate(0,0)"/>
<path d="" fill="#272424" transform="translate(0,0)"/>
<path d="" fill="#282628" transform="translate(0,0)"/>
<path d="" fill="#1F2020" transform="translate(0,0)"/>
<path d="" fill="#262523" transform="translate(0,0)"/>
<path d="" fill="#232222" transform="translate(0,0)"/>
<path d="" fill="#252422" transform="translate(0,0)"/>
<path d="" fill="#252422" transform="translate(0,0)"/>
<path d="" fill="#242320" transform="translate(0,0)"/>
<path d="" fill="#212223" transform="translate(0,0)"/>
<path d="" fill="#252424" transform="translate(0,0)"/>
<path d="" fill="#1F201E" transform="translate(0,0)"/>
<path d="" fill="#1F1D1E" transform="translate(0,0)"/>
<path d="" fill="#222122" transform="translate(0,0)"/>
<path d="" fill="#232321" transform="translate(0,0)"/>
<path d="" fill="#181817" transform="translate(0,0)"/>
<path d="" fill="#242223" transform="translate(0,0)"/>
<path d="" fill="#1B191A" transform="translate(0,0)"/>
<path d="" fill="#161516" transform="translate(0,0)"/>
<path d="" fill="#1B191A" transform="translate(0,0)"/>
<path d="" fill="#131515" transform="translate(0,0)"/>
<path d="" fill="#1E1E1C" transform="translate(0,0)"/>
<path d="" fill="#232121" transform="translate(0,0)"/>
<path d="" fill="#242323" transform="translate(0,0)"/>
<path d="" fill="#181617" transform="translate(0,0)"/>
<path d="" fill="#212020" transform="translate(0,0)"/>
<path d="" fill="#161613" transform="translate(0,0)"/>
<path d="" fill="#262524" transform="translate(0,0)"/>
<path d="" fill="#181617" transform="translate(0,0)"/>
<path d="" fill="#222322" transform="translate(0,0)"/>
<path d="" fill="#181518" transform="translate(0,0)"/>
<path d="" fill="#171715" transform="translate(0,0)"/>
<path d="" fill="#191817" transform="translate(0,0)"/>
<path d="" fill="#282624" transform="translate(0,0)"/>
<path d="" fill="#17181A" transform="translate(0,0)"/>
<path d="" fill="#262525" transform="translate(0,0)"/>
<path d="" fill="#252525" transform="translate(0,0)"/>
<path d="" fill="#1B1B18" transform="translate(0,0)"/>
<path d="" fill="#1C1C1B" transform="translate(0,0)"/>
<path d="" fill="#1D1E1A" transform="translate(0,0)"/>
<path d="" fill="#1C1D1A" transform="translate(0,0)"/>
<path d="" fill="#1C1B1A" transform="translate(0,0)"/>
<path d="" fill="#1E1C1B" transform="translate(0,0)"/>
<path d="" fill="#1B1D1E" transform="translate(0,0)"/>
<path d="" fill="#1B1B1B" transform="translate(0,0)"/>
<path d="" fill="#1D1C19" transform="translate(0,0)"/>
<path d="" fill="#1C1C1C" transform="translate(0,0)"/>
<path d="" fill="#181818" transform="translate(0,0)"/>
<path d="" fill="#1A1A1A" transform="translate(0,0)"/>
<path d="" fill="#1F1C1D" transform="translate(0,0)"/>
<path d="" fill="#1E1E1E" transform="translate(0,0)"/>
<path d="" fill="#1A1A19" transform="translate(0,0)"/>
<path d="" fill="#1B1B1A" transform="translate(0,0)"/>
<path d="" fill="#262326" transform="translate(0,0)"/>
<path d="" fill="#292827" transform="translate(0,0)"/>
<path d="" fill="#292828" transform="translate(0,0)"/>
<path d="" fill="#242624" transform="translate(0,0)"/>
<path d="" fill="#262625" transform="translate(0,0)"/>
<path d="" fill="#262625" transform="translate(0,0)"/>
<path d="" fill="#282624" transform="translate(0,0)"/>
<path d="" fill="#272726" transform="translate(0,0)"/>
<path d="" fill="#272727" transform="translate(0,0)"/>
<path d="" fill="#282726" transform="translate(0,0)"/>
<path d="" fill="#292927" transform="translate(0,0)"/>
<path d="" fill="#272727" transform="translate(0,0)"/>
<path d="" fill="#292727" transform="translate(0,0)"/>
<path d="" fill="#272627" transform="translate(0,0)"/>
<path d="" fill="#292929" transform="translate(0,0)"/>
<path d="" fill="#282A28" transform="translate(0,0)"/>
<path d="" fill="#2B2A2A" transform="translate(0,0)"/>
<path d="" fill="#2B2929" transform="translate(0,0)"/>
<path d="" fill="#212020" transform="translate(0,0)"/>
<path d="" fill="#2A2828" transform="translate(0,0)"/>
<path d="" fill="#222222" transform="translate(0,0)"/>
<path d="" fill="#2A2827" transform="translate(0,0)"/>
<path d="" fill="#242221" transform="translate(0,0)"/>
<path d="" fill="#222120" transform="translate(0,0)"/>
<path d="" fill="#1C1A1B" transform="translate(0,0)"/>
<path d="" fill="#272827" transform="translate(0,0)"/>
<path d="" fill="#201D1E" transform="translate(0,0)"/>
<path d="" fill="#4B4A4B" transform="translate(0,0)"/>
<path d="" fill="#201C1D" transform="translate(0,0)"/>
<path d="" fill="#1C1E1C" transform="translate(0,0)"/>
<path d="" fill="#1F1C1E" transform="translate(0,0)"/>
<path d="" fill="#1B1A19" transform="translate(0,0)"/>
<path d="" fill="#2B2928" transform="translate(0,0)"/>
<path d="" fill="#1E1C1E" transform="translate(0,0)"/>
<path d="" fill="#262226" transform="translate(0,0)"/>
<path d="" fill="#1D1D1E" transform="translate(0,0)"/>
<path d="" fill="#292828" transform="translate(0,0)"/>
<path d="" fill="#2A2A2A" transform="translate(0,0)"/>
<path d="" fill="#201F1F" transform="translate(0,0)"/>
<path d="" fill="#1E1D1A" transform="translate(0,0)"/>
<path d="" fill="#1D1C1A" transform="translate(0,0)"/>
<path d="" fill="#262727" transform="translate(0,0)"/>
<path d="" fill="#1F1D1D" transform="translate(0,0)"/>
<path d="" fill="#1B191A" transform="translate(0,0)"/>
<path d="" fill="#1D1D1D" transform="translate(0,0)"/>
<path d="" fill="#1B1B1B" transform="translate(0,0)"/>
<path d="" fill="#1D1C1D" transform="translate(0,0)"/>
<path d="" fill="#1B1B1A" transform="translate(0,0)"/>
<path d="" fill="#1C1D1C" transform="translate(0,0)"/>
<path d="" fill="#222323" transform="translate(0,0)"/>
<path d="" fill="#262925" transform="translate(0,0)"/>
<path d="" fill="#242122" transform="translate(0,0)"/>
<path d="" fill="#252322" transform="translate(0,0)"/>
<path d="" fill="#222121" transform="translate(0,0)"/>
<path d="" fill="#272628" transform="translate(0,0)"/>
<path d="" fill="#201F23" transform="translate(0,0)"/>
<path d="" fill="#20201F" transform="translate(0,0)"/>
<path d="" fill="#2A2827" transform="translate(0,0)"/>
<path d="" fill="#1B1C1B" transform="translate(0,0)"/>
<path d="" fill="#242322" transform="translate(0,0)"/>
<path d="" fill="#202221" transform="translate(0,0)"/>
<path d="" fill="#242521" transform="translate(0,0)"/>
<path d="" fill="#212121" transform="translate(0,0)"/>
<path d="" fill="#1C1B1D" transform="translate(0,0)"/>
<path d="" fill="#282827" transform="translate(0,0)"/>
<path d="" fill="#202020" transform="translate(0,0)"/>
<path d="" fill="#252624" transform="translate(0,0)"/>
<path d="" fill="#252525" transform="translate(0,0)"/>
<path d="" fill="#222222" transform="translate(0,0)"/>
<path d="" fill="#262526" transform="translate(0,0)"/>
<path d="" fill="#1F1E1F" transform="translate(0,0)"/>
<path d="" fill="#222222" transform="translate(0,0)"/>
<path d="" fill="#1E201F" transform="translate(0,0)"/>
<path d="" fill="#222120" transform="translate(0,0)"/>
<path d="" fill="#292929" transform="translate(0,0)"/>
<path d="" fill="#282A2B" transform="translate(0,0)"/>
<path d="" fill="#2B2B2C" transform="translate(0,0)"/>
<path d="" fill="#292928" transform="translate(0,0)"/>
<path d="" fill="#201E1F" transform="translate(0,0)"/>
<path d="" fill="#212021" transform="translate(0,0)"/>
<path d="" fill="#222522" transform="translate(0,0)"/>
<path d="" fill="#222121" transform="translate(0,0)"/>
<path d="" fill="#232423" transform="translate(0,0)"/>
<path d="" fill="#202121" transform="translate(0,0)"/>
<path d="" fill="#21201F" transform="translate(0,0)"/>
<path d="" fill="#2C2C2C" transform="translate(0,0)"/>
<path d="" fill="#212223" transform="translate(0,0)"/>
<path d="" fill="#272928" transform="translate(0,0)"/>
<path d="" fill="#232221" transform="translate(0,0)"/>
<path d="" fill="#292B29" transform="translate(0,0)"/>
<path d="" fill="#232322" transform="translate(0,0)"/>
<path d="" fill="#2B2A29" transform="translate(0,0)"/>
<path d="" fill="#252424" transform="translate(0,0)"/>
<path d="" fill="#262324" transform="translate(0,0)"/>
<path d="" fill="#484848" transform="translate(0,0)"/>
<path d="" fill="#252525" transform="translate(0,0)"/>
<path d="" fill="#2A2827" transform="translate(0,0)"/>
<path d="" fill="#252623" transform="translate(0,0)"/>
<path d="" fill="#262724" transform="translate(0,0)"/>
<path d="" fill="#272827" transform="translate(0,0)"/>
<path d="" fill="#242425" transform="translate(0,0)"/>
<path d="" fill="#252523" transform="translate(0,0)"/>
<path d="" fill="#232222" transform="translate(0,0)"/>
<path d="" fill="#282826" transform="translate(0,0)"/>
<path d="" fill="#222320" transform="translate(0,0)"/>
<path d="" fill="#232323" transform="translate(0,0)"/>
<path d="" fill="#242523" transform="translate(0,0)"/>
<path d="" fill="#1F2120" transform="translate(0,0)"/>
<path d="" fill="#232322" transform="translate(0,0)"/>
<path d="" fill="#222121" transform="translate(0,0)"/>
<path d="" fill="#232221" transform="translate(0,0)"/>
<path d="" fill="#232222" transform="translate(0,0)"/>
<path d="" fill="#212020" transform="translate(0,0)"/>
<path d="" fill="#202020" transform="translate(0,0)"/>
<path d="" fill="#222322" transform="translate(0,0)"/>
<path d="" fill="#242424" transform="translate(0,0)"/>
<path d="" fill="#262725" transform="translate(0,0)"/>
<path d="" fill="#212222" transform="translate(0,0)"/>
<path d="" fill="#242222" transform="translate(0,0)"/>
<path d="" fill="#222120" transform="translate(0,0)"/>
<path d="" fill="#474948" transform="translate(0,0)"/>
<path d="" fill="#383839" transform="translate(0,0)"/>
<path d="" fill="#252623" transform="translate(0,0)"/>
<path d="" fill="#1D201E" transform="translate(0,0)"/>
<path d="" fill="#222120" transform="translate(0,0)"/>
<path d="" fill="#232424" transform="translate(0,0)"/>
<path d="" fill="#22221F" transform="translate(0,0)"/>
<path d="" fill="#272424" transform="translate(0,0)"/>
<path d="" fill="#222221" transform="translate(0,0)"/>
<path d="" fill="#222223" transform="translate(0,0)"/>
<path d="" fill="#242121" transform="translate(0,0)"/>
<path d="" fill="#222320" transform="translate(0,0)"/>
<path d="" fill="#272423" transform="translate(0,0)"/>
<path d="" fill="#232322" transform="translate(0,0)"/>
<path d="" fill="#242523" transform="translate(0,0)"/>
<path d="" fill="#21201F" transform="translate(0,0)"/>
<path d="" fill="#1F2221" transform="translate(0,0)"/>
<path d="" fill="#211F1F" transform="translate(0,0)"/>
<path d="" fill="#242322" transform="translate(0,0)"/>
<path d="" fill="#242120" transform="translate(0,0)"/>
<path d="" fill="#242222" transform="translate(0,0)"/>
<path d="" fill="#202121" transform="translate(0,0)"/>
<path d="" fill="#222324" transform="translate(0,0)"/>
<path d="" fill="#202122" transform="translate(0,0)"/>
<path d="" fill="#241F22" transform="translate(0,0)"/>
<path d="" fill="#232321" transform="translate(0,0)"/>
<path d="" fill="#202122" transform="translate(0,0)"/>
<path d="" fill="#222020" transform="translate(0,0)"/>
<path d="" fill="#232324" transform="translate(0,0)"/>
<path d="" fill="#242222" transform="translate(0,0)"/>
<path d="" fill="#212120" transform="translate(0,0)"/>
<path d="" fill="#242322" transform="translate(0,0)"/>
<path d="" fill="#262521" transform="translate(0,0)"/>
<path d="" fill="#222222" transform="translate(0,0)"/>
<path d="" fill="#242423" transform="translate(0,0)"/>
<path d="" fill="#222320" transform="translate(0,0)"/>
<path d="" fill="#222322" transform="translate(0,0)"/>
<path d="" fill="#232221" transform="translate(0,0)"/>
<path d="" fill="#242323" transform="translate(0,0)"/>
<path d="" fill="#232521" transform="translate(0,0)"/>
<path d="" fill="#232322" transform="translate(0,0)"/>
<path d="" fill="#262523" transform="translate(0,0)"/>
<path d="" fill="#262524" transform="translate(0,0)"/>
<path d="" fill="#252323" transform="translate(0,0)"/>
<path d="" fill="#212121" transform="translate(0,0)"/>
<path d="" fill="#242223" transform="translate(0,0)"/>
<path d="" fill="#232121" transform="translate(0,0)"/>
<path d="" fill="#232421" transform="translate(0,0)"/>
<path d="" fill="#242624" transform="translate(0,0)"/>
<path d="" fill="#242524" transform="translate(0,0)"/>
<path d="" fill="#242425" transform="translate(0,0)"/>
<path d="" fill="#242323" transform="translate(0,0)"/>
<path d="" fill="#3C3C3D" transform="translate(0,0)"/>
<path d="" fill="#262623" transform="translate(0,0)"/>
<path d="" fill="#232320" transform="translate(0,0)"/>
<path d="" fill="#262726" transform="translate(0,0)"/>
<path d="" fill="#282727" transform="translate(0,0)"/>
<path d="" fill="#212324" transform="translate(0,0)"/>
<path d="" fill="#262624" transform="translate(0,0)"/>
<path d="" fill="#272824" transform="translate(0,0)"/>
<path d="" fill="#252523" transform="translate(0,0)"/>
<path d="" fill="#2B2928" transform="translate(0,0)"/>
<path d="" fill="#2A2926" transform="translate(0,0)"/>
<path d="" fill="#262524" transform="translate(0,0)"/>
<path d="" fill="#282627" transform="translate(0,0)"/>
</svg>
